name rise30.9205peak61.366fall85.3838.mot
datacolumns 19
datarows 35
range 3.64165400000000 3.69832500000000
endheader
time	ground_force1_vx	ground_force1_vy	ground_force1_vz	ground_force1_px	ground_force1_py	ground_force1_pz	ground_force2_vx	ground_force2_vy	ground_force2_vz	ground_force2_px	ground_force2_py	ground_force2_pz	ground_torque1_x	ground_torque1_y	ground_torque1_z	ground_torque2_x	ground_torque2_y	ground_torque2_z	
3.64165400000000	-36.49309000000000	801.56699100000003	53.33907300000000	0.13806300000000	0.00000000000000	0.10698400000000	-7.26778700000000	79.13539100000000	7.10290000000000	0.40316100000000	0.00000000000000	-0.07081100000000	0.00000000000000	21.17577100000000	0.00000000000000	0.00000000000000	5.07436000000000	0.00000000000000	
3.64331800000000	-37.03939300000000	798.11780999999996	52.87200900000000	0.13734000000000	0.00000000000000	0.10684000000000	-7.39080800000000	83.24818700000000	7.17817000000000	0.40554500000000	0.00000000000000	-0.07098000000000	0.00000000000000	21.04651600000000	0.00000000000000	0.00000000000000	5.13215700000000	0.00000000000000	
3.64498300000000	-37.60667700000000	794.57168899999999	52.38607800000000	0.13662100000000	0.00000000000000	0.10669200000000	-7.45254200000000	87.23332200000000	7.20647500000000	0.40781400000000	0.00000000000000	-0.07114400000000	0.00000000000000	20.91925400000000	0.00000000000000	0.00000000000000	5.15865300000000	0.00000000000000	
3.64665400000000	-38.19504700000000	790.93029600000000	51.88192400000000	0.13590500000000	0.00000000000000	0.10654100000000	-7.45719100000000	91.14874300000000	7.19532800000000	0.40996800000000	0.00000000000000	-0.07130500000000	0.00000000000000	20.79419500000000	0.00000000000000	0.00000000000000	5.15977800000000	0.00000000000000	
3.64831600000000	-38.80454000000000	787.19526199999996	51.36021200000000	0.13519100000000	0.00000000000000	0.10638600000000	-7.40909800000000	95.05058800000000	7.15186900000000	0.41200700000000	0.00000000000000	-0.07146500000000	0.00000000000000	20.67153300000000	0.00000000000000	0.00000000000000	5.14115600000000	0.00000000000000	
3.64998500000000	-39.43512400000000	783.36816699999997	50.82163200000000	0.13447800000000	0.00000000000000	0.10622900000000	-7.31233400000000	98.98960300000000	7.08241400000000	0.41393300000000	0.00000000000000	-0.07162200000000	0.00000000000000	20.55144900000000	0.00000000000000	0.00000000000000	5.10776100000000	0.00000000000000	
3.65165600000000	-40.08669600000000	779.45053499999995	50.26689300000000	0.13376700000000	0.00000000000000	0.10606800000000	-7.17039500000000	103.00856400000001	6.99214800000000	0.41574700000000	0.00000000000000	-0.07178000000000	0.00000000000000	20.43410400000000	0.00000000000000	0.00000000000000	5.06367100000000	0.00000000000000	
3.65332100000000	-40.75907900000000	775.44382700000006	49.69672200000000	0.13305600000000	0.00000000000000	0.10590400000000	-6.98599300000000	107.14073000000000	6.88494900000000	0.41745100000000	0.00000000000000	-0.07193800000000	0.00000000000000	20.31964400000000	0.00000000000000	0.00000000000000	5.01193600000000	0.00000000000000	
3.65499200000000	-41.45201800000000	771.34942899999999	49.11186100000000	0.13234400000000	0.00000000000000	0.10573800000000	-6.76096300000000	111.40925500000000	6.76335000000000	0.41904400000000	0.00000000000000	-0.07209700000000	0.00000000000000	20.20819800000000	0.00000000000000	0.00000000000000	4.95454500000000	0.00000000000000	
3.65665400000000	-42.16517900000000	767.16865399999995	48.51306600000000	0.13163000000000	0.00000000000000	0.10556800000000	-6.49625100000000	115.82742800000000	6.62860400000000	0.42052900000000	0.00000000000000	-0.07225700000000	0.00000000000000	20.09987800000000	0.00000000000000	0.00000000000000	4.89247900000000	0.00000000000000	
3.65831800000000	-42.89814700000000	762.90273000000002	47.90110200000000	0.13091400000000	0.00000000000000	0.10539700000000	-6.19199100000000	120.39957600000000	6.48083500000000	0.42190800000000	0.00000000000000	-0.07241900000000	0.00000000000000	19.99477500000000	0.00000000000000	0.00000000000000	4.82582800000000	0.00000000000000	
3.65998900000000	-43.65042300000000	758.55279599999994	47.27674500000000	0.13019400000000	0.00000000000000	0.10522300000000	-5.84762400000000	125.12244000000000	6.31924000000000	0.42318000000000	0.00000000000000	-0.07258300000000	0.00000000000000	19.89296500000000	0.00000000000000	0.00000000000000	4.75395700000000	0.00000000000000	
3.66165300000000	-44.42142400000000	754.11989700000004	46.64077300000000	0.12947000000000	0.00000000000000	0.10504700000000	-5.46206500000000	129.98682900000000	6.14233600000000	0.42434900000000	0.00000000000000	-0.07274900000000	0.00000000000000	19.79450200000000	0.00000000000000	0.00000000000000	4.67569700000000	0.00000000000000	
3.66332400000000	-45.21047800000000	749.60498299999995	45.99397200000000	0.12874100000000	0.00000000000000	0.10486900000000	-5.03388200000000	134.97937999999999	5.94819600000000	0.42541600000000	0.00000000000000	-0.07291800000000	0.00000000000000	19.69942400000000	0.00000000000000	0.00000000000000	4.58953600000000	0.00000000000000	
3.66499100000000	-46.01682800000000	745.00890000000004	45.33712600000000	0.12800500000000	0.00000000000000	0.10468900000000	-4.56147900000000	140.08427900000001	5.73469200000000	0.42638300000000	0.00000000000000	-0.07308900000000	0.00000000000000	19.60774800000000	0.00000000000000	0.00000000000000	4.49380900000000	0.00000000000000	
3.66665100000000	-46.83962600000000	740.33239400000002	44.67102000000000	0.12726300000000	0.00000000000000	0.10450700000000	-4.04325900000000	145.28481700000000	5.49969700000000	0.42725100000000	0.00000000000000	-0.07326300000000	0.00000000000000	19.51947200000000	0.00000000000000	0.00000000000000	4.38686000000000	0.00000000000000	
3.66831700000000	-47.67793600000000	735.57610299999999	43.99643300000000	0.12651200000000	0.00000000000000	0.10432400000000	-3.47777600000000	150.56469600000000	5.24125900000000	0.42802300000000	0.00000000000000	-0.07344000000000	0.00000000000000	19.43457400000000	0.00000000000000	0.00000000000000	4.26717900000000	0.00000000000000	
3.66998800000000	-48.53073200000000	730.74055899999996	43.31414300000000	0.12575300000000	0.00000000000000	0.10414000000000	-2.86384700000000	155.90904699999999	4.95772500000000	0.42870100000000	0.00000000000000	-0.07362000000000	0.00000000000000	19.35301400000000	0.00000000000000	0.00000000000000	4.13349800000000	0.00000000000000	
3.67165900000000	-49.39689800000000	725.82618700000000	42.62491600000000	0.12498500000000	0.00000000000000	0.10395500000000	-2.20063600000000	161.30513199999999	4.64783100000000	0.42928700000000	0.00000000000000	-0.07380200000000	0.00000000000000	19.27473200000000	0.00000000000000	0.00000000000000	3.98486200000000	0.00000000000000	
3.67332200000000	-50.27522800000000	720.83330500000000	41.92951300000000	0.12420600000000	0.00000000000000	0.10376900000000	-1.48770500000000	166.74274900000000	4.31074000000000	0.42978300000000	0.00000000000000	-0.07398700000000	0.00000000000000	19.19964600000000	0.00000000000000	0.00000000000000	3.82065400000000	0.00000000000000	
3.67499200000000	-51.16442800000000	715.76212299999997	41.22868000000000	0.12341600000000	0.00000000000000	0.10358200000000	-0.72503600000000	172.21435800000000	3.94605500000000	0.43019300000000	0.00000000000000	-0.07417400000000	0.00000000000000	19.12765800000000	0.00000000000000	0.00000000000000	3.64060400000000	0.00000000000000	
3.67665300000000	-52.06311800000000	710.61274900000001	40.52315100000000	0.12261400000000	0.00000000000000	0.10339500000000	0.08697700000000	177.71498600000001	3.55378800000000	0.43051900000000	0.00000000000000	-0.07436400000000	0.00000000000000	19.05864800000000	0.00000000000000	0.00000000000000	3.44476200000000	0.00000000000000	
3.67831700000000	-52.96982700000000	705.38518599999998	39.81364600000000	0.12180000000000	0.00000000000000	0.10320700000000	0.94755200000000	183.24195499999999	3.13432300000000	0.43076300000000	0.00000000000000	-0.07455500000000	0.00000000000000	18.99247900000000	0.00000000000000	0.00000000000000	3.23346200000000	0.00000000000000	
3.67998600000000	-53.88300400000000	700.07933800000001	39.10086700000000	0.12097300000000	0.00000000000000	0.10302000000000	1.85555900000000	188.79449299999999	2.68834900000000	0.43092800000000	0.00000000000000	-0.07474800000000	0.00000000000000	18.92899400000000	0.00000000000000	0.00000000000000	3.00727400000000	0.00000000000000	
3.68165100000000	-54.80101300000000	694.69501300000002	38.38549900000000	0.12013300000000	0.00000000000000	0.10283200000000	2.80957500000000	194.37327900000000	2.21679800000000	0.43101800000000	0.00000000000000	-0.07494300000000	0.00000000000000	18.86801600000000	0.00000000000000	0.00000000000000	2.76694400000000	0.00000000000000	
3.68332000000000	-55.72214000000000	689.23192600000004	37.66820600000000	0.11927900000000	0.00000000000000	0.10264400000000	3.80793300000000	199.97997200000000	1.72077600000000	0.43103500000000	0.00000000000000	-0.07513900000000	0.00000000000000	18.80935100000000	0.00000000000000	0.00000000000000	2.51333900000000	0.00000000000000	
3.68498500000000	-56.64459200000000	683.68970600000000	36.94963300000000	0.11841200000000	0.00000000000000	0.10245700000000	4.84877800000000	205.61676399999999	1.20149600000000	0.43098100000000	0.00000000000000	-0.07533600000000	0.00000000000000	18.75278700000000	0.00000000000000	0.00000000000000	2.24739800000000	0.00000000000000	
3.68665700000000	-57.56650500000000	678.06790200000000	36.23040000000000	0.11752900000000	0.00000000000000	0.10227000000000	5.93012100000000	211.28598000000000	0.66022700000000	0.43086200000000	0.00000000000000	-0.07553400000000	0.00000000000000	18.69809600000000	0.00000000000000	0.00000000000000	1.97008400000000	0.00000000000000	
3.68832400000000	-58.48594200000000	672.36598800000002	35.51110700000000	0.11663300000000	0.00000000000000	0.10208400000000	7.04987600000000	216.98975500000000	0.09824500000000	0.43067800000000	0.00000000000000	-0.07573300000000	0.00000000000000	18.64502900000000	0.00000000000000	0.00000000000000	1.68235100000000	0.00000000000000	
3.68998800000000	-59.40090500000000	666.58337200000005	34.79232900000000	0.11572100000000	0.00000000000000	0.10189900000000	8.20590200000000	222.72979300000000	-0.48319900000000	0.43043400000000	0.00000000000000	-0.07593100000000	0.00000000000000	18.59332400000000	0.00000000000000	0.00000000000000	1.38511200000000	0.00000000000000	
3.69165200000000	-60.30933000000000	660.71940600000005	34.07461500000000	0.11479600000000	0.00000000000000	0.10171400000000	9.39602800000000	228.50720999999999	-1.08290200000000	0.43013400000000	0.00000000000000	-0.07612900000000	0.00000000000000	18.54270200000000	0.00000000000000	0.00000000000000	1.07922600000000	0.00000000000000	
3.69332300000000	-61.20910200000000	654.77339300000006	33.35849100000000	0.11385500000000	0.00000000000000	0.10153100000000	10.61806900000000	234.32245700000001	-1.69972300000000	0.42977900000000	0.00000000000000	-0.07632700000000	0.00000000000000	18.49287000000000	0.00000000000000	0.00000000000000	0.76548900000000	0.00000000000000	
3.69499200000000	-62.09805300000000	648.74459999999999	32.64445600000000	0.11290100000000	0.00000000000000	0.10134900000000	11.86984600000000	240.17531099999999	-2.33258100000000	0.42937400000000	0.00000000000000	-0.07652400000000	0.00000000000000	18.44352100000000	0.00000000000000	0.00000000000000	0.44463100000000	0.00000000000000	
3.69665300000000	-62.97397000000000	642.63226799999995	31.93298300000000	0.11193200000000	0.00000000000000	0.10116800000000	13.14918000000000	246.06492399999999	-2.98045400000000	0.42892100000000	0.00000000000000	-0.07672000000000	0.00000000000000	18.39433300000000	0.00000000000000	0.00000000000000	0.11732100000000	0.00000000000000	
3.69832500000000	-63.83460200000000	636.43562899999995	31.22451800000000	0.11095000000000	0.00000000000000	0.10098800000000	14.45390200000000	251.98991799999999	-3.64236900000000	0.42842500000000	0.00000000000000	-0.07691500000000	0.00000000000000	18.34497300000000	0.00000000000000	0.00000000000000	-0.21582300000000	0.00000000000000	
